<?xml version='1.0' encoding='UTF-8'?>
<svg width="66mm" height="66mm" version="1.1" viewBox="0 0 66 66" fill_color="#4d1f42" back_color="white" xmlns="http://www.w3.org/2000/svg"><path d="M4,4H6V6H4zM6,4H8V6H6zM8,4H10V6H8zM10,4H12V6H10zM12,4H14V6H12zM14,4H16V6H14zM16,4H18V6H16zM20,4H22V6H20zM22,4H24V6H22zM24,4H26V6H24zM26,4H28V6H26zM30,4H32V6H30zM34,4H36V6H34zM42,4H44V6H42zM44,4H46V6H44zM48,4H50V6H48zM50,4H52V6H50zM52,4H54V6H52zM54,4H56V6H54zM56,4H58V6H56zM58,4H60V6H58zM60,4H62V6H60zM4,6H6V8H4zM16,6H18V8H16zM20,6H22V8H20zM22,6H24V8H22zM28,6H30V8H28zM30,6H32V8H30zM36,6H38V8H36zM38,6H40V8H38zM40,6H42V8H40zM44,6H46V8H44zM48,6H50V8H48zM60,6H62V8H60zM4,8H6V10H4zM8,8H10V10H8zM10,8H12V10H10zM12,8H14V10H12zM16,8H18V10H16zM22,8H24V10H22zM24,8H26V10H24zM26,8H28V10H26zM34,8H36V10H34zM40,8H42V10H40zM42,8H44V10H42zM48,8H50V10H48zM52,8H54V10H52zM54,8H56V10H54zM56,8H58V10H56zM60,8H62V10H60zM4,10H6V12H4zM8,10H10V12H8zM10,10H12V12H10zM12,10H14V12H12zM16,10H18V12H16zM20,10H22V12H20zM28,10H30V12H28zM32,10H34V12H32zM38,10H40V12H38zM42,10H44V12H42zM48,10H50V12H48zM52,10H54V12H52zM54,10H56V12H54zM56,10H58V12H56zM60,10H62V12H60zM4,12H6V14H4zM8,12H10V14H8zM10,12H12V14H10zM12,12H14V14H12zM16,12H18V14H16zM22,12H24V14H22zM26,12H28V14H26zM28,12H30V14H28zM32,12H34V14H32zM34,12H36V14H34zM38,12H40V14H38zM42,12H44V14H42zM48,12H50V14H48zM52,12H54V14H52zM54,12H56V14H54zM56,12H58V14H56zM60,12H62V14H60zM4,14H6V16H4zM16,14H18V16H16zM22,14H24V16H22zM30,14H32V16H30zM38,14H40V16H38zM42,14H44V16H42zM48,14H50V16H48zM60,14H62V16H60zM4,16H6V18H4zM6,16H8V18H6zM8,16H10V18H8zM10,16H12V18H10zM12,16H14V18H12zM14,16H16V18H14zM16,16H18V18H16zM20,16H22V18H20zM24,16H26V18H24zM28,16H30V18H28zM32,16H34V18H32zM36,16H38V18H36zM40,16H42V18H40zM44,16H46V18H44zM48,16H50V18H48zM50,16H52V18H50zM52,16H54V18H52zM54,16H56V18H54zM56,16H58V18H56zM58,16H60V18H58zM60,16H62V18H60zM20,18H22V20H20zM22,18H24V20H22zM24,18H26V20H24zM26,18H28V20H26zM34,18H36V20H34zM36,18H38V20H36zM38,18H40V20H38zM4,20H6V22H4zM8,20H10V22H8zM10,20H12V22H10zM14,20H16V22H14zM16,20H18V22H16zM18,20H20V22H18zM30,20H32V22H30zM36,20H38V22H36zM38,20H40V22H38zM42,20H44V22H42zM44,20H46V22H44zM48,20H50V22H48zM54,20H56V22H54zM58,20H60V22H58zM60,20H62V22H60zM8,22H10V24H8zM12,22H14V24H12zM14,22H16V24H14zM20,22H22V24H20zM30,22H32V24H30zM32,22H34V24H32zM36,22H38V24H36zM38,22H40V24H38zM40,22H42V24H40zM42,22H44V24H42zM44,22H46V24H44zM46,22H48V24H46zM48,22H50V24H48zM50,22H52V24H50zM52,22H54V24H52zM60,22H62V24H60zM8,24H10V26H8zM14,24H16V26H14zM16,24H18V26H16zM22,24H24V26H22zM28,24H30V26H28zM30,24H32V26H30zM40,24H42V26H40zM46,24H48V26H46zM48,24H50V26H48zM50,24H52V26H50zM52,24H54V26H52zM56,24H58V26H56zM58,24H60V26H58zM4,26H6V28H4zM6,26H8V28H6zM8,26H10V28H8zM10,26H12V28H10zM18,26H20V28H18zM24,26H26V28H24zM26,26H28V28H26zM34,26H36V28H34zM42,26H44V28H42zM46,26H48V28H46zM60,26H62V28H60zM10,28H12V30H10zM12,28H14V30H12zM14,28H16V30H14zM16,28H18V30H16zM26,28H28V30H26zM28,28H30V30H28zM32,28H34V30H32zM38,28H40V30H38zM42,28H44V30H42zM50,28H52V30H50zM54,28H56V30H54zM56,28H58V30H56zM4,30H6V32H4zM10,30H12V32H10zM12,30H14V32H12zM14,30H16V32H14zM18,30H20V32H18zM26,30H28V32H26zM32,30H34V32H32zM34,30H36V32H34zM36,30H38V32H36zM42,30H44V32H42zM48,30H50V32H48zM56,30H58V32H56zM58,30H60V32H58zM60,30H62V32H60zM4,32H6V34H4zM6,32H8V34H6zM10,32H12V34H10zM16,32H18V34H16zM24,32H26V34H24zM26,32H28V34H26zM30,32H32V34H30zM42,32H44V34H42zM44,32H46V34H44zM46,32H48V34H46zM52,32H54V34H52zM56,32H58V34H56zM58,32H60V34H58zM60,32H62V34H60zM6,34H8V36H6zM8,34H10V36H8zM20,34H22V36H20zM24,34H26V36H24zM28,34H30V36H28zM32,34H34V36H32zM34,34H36V36H34zM42,34H44V36H42zM44,34H46V36H44zM46,34H48V36H46zM48,34H50V36H48zM52,34H54V36H52zM58,34H60V36H58zM4,36H6V38H4zM6,36H8V38H6zM8,36H10V38H8zM10,36H12V38H10zM14,36H16V38H14zM16,36H18V38H16zM20,36H22V38H20zM28,36H30V38H28zM32,36H34V38H32zM34,36H36V38H34zM40,36H42V38H40zM44,36H46V38H44zM50,36H52V38H50zM52,36H54V38H52zM54,36H56V38H54zM58,36H60V38H58zM6,38H8V40H6zM12,38H14V40H12zM20,38H22V40H20zM22,38H24V40H22zM32,38H34V40H32zM34,38H36V40H34zM38,38H40V40H38zM44,38H46V40H44zM46,38H48V40H46zM50,38H52V40H50zM54,38H56V40H54zM56,38H58V40H56zM58,38H60V40H58zM4,40H6V42H4zM8,40H10V42H8zM12,40H14V42H12zM14,40H16V42H14zM16,40H18V42H16zM18,40H20V42H18zM24,40H26V42H24zM26,40H28V42H26zM28,40H30V42H28zM30,40H32V42H30zM32,40H34V42H32zM34,40H36V42H34zM38,40H40V42H38zM50,40H52V42H50zM52,40H54V42H52zM56,40H58V42H56zM8,42H10V44H8zM12,42H14V44H12zM14,42H16V44H14zM26,42H28V44H26zM30,42H32V44H30zM32,42H34V44H32zM36,42H38V44H36zM38,42H40V44H38zM40,42H42V44H40zM42,42H44V44H42zM48,42H50V44H48zM56,42H58V44H56zM6,44H8V46H6zM10,44H12V46H10zM12,44H14V46H12zM16,44H18V46H16zM18,44H20V46H18zM30,44H32V46H30zM32,44H34V46H32zM36,44H38V46H36zM38,44H40V46H38zM44,44H46V46H44zM46,44H48V46H46zM48,44H50V46H48zM50,44H52V46H50zM52,44H54V46H52zM54,44H56V46H54zM56,44H58V46H56zM20,46H22V48H20zM22,46H24V48H22zM24,46H26V48H24zM36,46H38V48H36zM38,46H40V48H38zM40,46H42V48H40zM44,46H46V48H44zM52,46H54V48H52zM54,46H56V48H54zM56,46H58V48H56zM58,46H60V48H58zM60,46H62V48H60zM4,48H6V50H4zM6,48H8V50H6zM8,48H10V50H8zM10,48H12V50H10zM12,48H14V50H12zM14,48H16V50H14zM16,48H18V50H16zM20,48H22V50H20zM22,48H24V50H22zM24,48H26V50H24zM28,48H30V50H28zM32,48H34V50H32zM40,48H42V50H40zM42,48H44V50H42zM44,48H46V50H44zM48,48H50V50H48zM52,48H54V50H52zM54,48H56V50H54zM58,48H60V50H58zM4,50H6V52H4zM16,50H18V52H16zM20,50H22V52H20zM22,50H24V52H22zM24,50H26V52H24zM28,50H30V52H28zM30,50H32V52H30zM32,50H34V52H32zM40,50H42V52H40zM42,50H44V52H42zM44,50H46V52H44zM52,50H54V52H52zM54,50H56V52H54zM60,50H62V52H60zM4,52H6V54H4zM8,52H10V54H8zM10,52H12V54H10zM12,52H14V54H12zM16,52H18V54H16zM24,52H26V54H24zM26,52H28V54H26zM34,52H36V54H34zM38,52H40V54H38zM44,52H46V54H44zM46,52H48V54H46zM48,52H50V54H48zM50,52H52V54H50zM52,52H54V54H52zM56,52H58V54H56zM4,54H6V56H4zM8,54H10V56H8zM10,54H12V56H10zM12,54H14V56H12zM16,54H18V56H16zM20,54H22V56H20zM24,54H26V56H24zM34,54H36V56H34zM36,54H38V56H36zM38,54H40V56H38zM40,54H42V56H40zM42,54H44V56H42zM50,54H52V56H50zM52,54H54V56H52zM54,54H56V56H54zM60,54H62V56H60zM4,56H6V58H4zM8,56H10V58H8zM10,56H12V58H10zM12,56H14V58H12zM16,56H18V58H16zM20,56H22V58H20zM22,56H24V58H22zM30,56H32V58H30zM32,56H34V58H32zM38,56H40V58H38zM40,56H42V58H40zM42,56H44V58H42zM46,56H48V58H46zM50,56H52V58H50zM56,56H58V58H56zM60,56H62V58H60zM4,58H6V60H4zM16,58H18V60H16zM22,58H24V60H22zM24,58H26V60H24zM26,58H28V60H26zM30,58H32V60H30zM34,58H36V60H34zM36,58H38V60H36zM42,58H44V60H42zM44,58H46V60H44zM46,58H48V60H46zM52,58H54V60H52zM54,58H56V60H54zM58,58H60V60H58zM4,60H6V62H4zM6,60H8V62H6zM8,60H10V62H8zM10,60H12V62H10zM12,60H14V62H12zM14,60H16V62H14zM16,60H18V62H16zM20,60H22V62H20zM26,60H28V62H26zM30,60H32V62H30zM40,60H42V62H40zM44,60H46V62H44zM48,60H50V62H48zM52,60H54V62H52zM58,60H60V62H58z" id="qr-path" fill="#000000" fill-opacity="1" fill-rule="nonzero" stroke="none"/></svg>